<svg width="12" height="12" viewBox="0 0 12 12" fill="none" xmlns="http://www.w3.org/2000/svg">
<path d="M6.03533 6.657L8.51033 4.182C8.55645 4.13425 8.61162 4.09616 8.67263 4.06995C8.73363 4.04375 8.79924 4.02995 8.86563 4.02938C8.93202 4.0288 8.99786 4.04145 9.0593 4.06659C9.12075 4.09173 9.17658 4.12886 9.22353 4.1758C9.27047 4.22275 9.3076 4.27858 9.33274 4.34003C9.35788 4.40147 9.37053 4.46731 9.36995 4.5337C9.36938 4.60009 9.35558 4.6657 9.32938 4.7267C9.30317 4.78771 9.26508 4.84288 9.21733 4.889L6.38883 7.7175C6.29506 7.81124 6.16791 7.8639 6.03533 7.8639C5.90275 7.8639 5.77559 7.81124 5.68183 7.7175L2.85333 4.889C2.80557 4.84288 2.76748 4.78771 2.74128 4.7267C2.71507 4.6657 2.70128 4.60009 2.7007 4.5337C2.70013 4.46731 2.71278 4.40147 2.73792 4.34003C2.76306 4.27858 2.80018 4.22275 2.84713 4.1758C2.89408 4.12886 2.9499 4.09173 3.01135 4.06659C3.0728 4.04145 3.13864 4.0288 3.20503 4.02938C3.27142 4.02995 3.33703 4.04375 3.39803 4.06995C3.45903 4.09616 3.5142 4.13425 3.56033 4.182L6.03533 6.657Z" fill="#21272A"/>
</svg>
