<svg width="118" height="46" viewBox="0 0 118 46" fill="none" xmlns="http://www.w3.org/2000/svg">
<path d="M37.8928 29.937C36.062 29.937 34.7488 29.4601 33.9525 28.5061C33.1562 27.5523 32.9401 26.1599 33.3041 24.3295L34.9813 15.8986H38.1333L36.4946 24.1358C36.2613 25.3091 36.2895 26.1534 36.5804 26.6692C36.8708 27.1849 37.4803 27.4426 38.4085 27.4426C39.3367 27.4426 40.0807 27.1849 40.6026 26.6692C41.124 26.1538 41.5094 25.2706 41.7579 24.02L43.3733 15.8986H46.5253L44.8714 24.2132C44.4994 26.0825 43.7141 27.5039 42.5149 28.4771C41.3157 29.4506 39.775 29.937 37.8931 29.937H37.8928Z" fill="#25376A"/>
<path d="M46.6351 29.7244L49.3854 15.8986H53.0207L56.4684 25.0061L58.2802 15.8986H61.0647L58.3145 29.7244H55.1819L51.3774 19.8819L49.4193 29.7244H46.6348H46.6351Z" fill="#25376A"/>
<path d="M61.3691 29.7243L64.1197 15.8986H67.2717L64.5211 29.7243H61.3691Z" fill="#25376A"/>
<path d="M67.5762 29.7243L70.3264 15.8986H75.2768C76.9524 15.8986 78.1909 16.25 78.9925 16.9525C79.7933 17.6554 80.056 18.7025 79.7789 20.0946L79.7636 20.172C79.3893 22.0542 78.1981 23.2789 76.1901 23.8458L78.6753 29.7243H75.3496L73.1048 24.3874H71.7512L70.6896 29.7243H67.5766H67.5762ZM72.1743 22.2604H73.9339C75.5066 22.2604 76.4249 21.5968 76.689 20.2688L76.7043 20.1914C76.84 19.5083 76.7405 19.0216 76.405 18.7315C76.0692 18.4414 75.5085 18.2966 74.7221 18.2966H72.9626L72.174 22.2604H72.1743Z" fill="#25376A"/>
<path d="M80.5703 29.7243L83.3209 15.8986H92.332L91.8475 18.3351H85.9499L85.3076 21.5644H90.0258L89.5718 23.8461H84.8536L84.169 27.2882H90.3761L89.8913 29.7247H80.5711L80.5703 29.7243Z" fill="#25376A"/>
<path d="M92.0762 29.7244L94.8268 15.8986H97.9593L95.6974 27.2684H101.324L100.836 29.7244H92.0762Z" fill="#25376A"/>
<path d="M114.331 27.9355C112.757 29.2696 110.9 29.9367 108.76 29.9367C106.621 29.9367 105.034 29.2761 104.001 27.9546C102.969 26.6334 102.656 24.9478 103.064 22.8978L103.095 22.7431C103.503 20.6935 104.508 19.0083 106.112 17.6864C107.715 16.3652 109.548 15.7042 111.611 15.7042C113.674 15.7042 115.279 16.3492 116.351 17.6379C117.422 18.9271 117.753 20.6031 117.342 22.6653L117.311 22.8201C116.898 24.8956 115.905 26.6002 114.331 27.9347L114.331 27.9355ZM109.314 27.4426C110.487 27.4426 111.498 27.0268 112.347 26.1954C113.195 25.3641 113.758 24.2522 114.035 22.8597L114.066 22.705C114.338 21.3388 114.214 20.2429 113.695 19.4177C113.176 18.5928 112.317 18.18 111.118 18.18C109.919 18.18 108.897 18.5894 108.051 19.4078C107.205 20.2265 106.643 21.332 106.366 22.724L106.335 22.8788C106.058 24.2708 106.199 25.3797 106.757 26.2046C107.314 27.0298 108.167 27.4422 109.314 27.4422L109.314 27.4426Z" fill="#25376A"/>
<path d="M16.3812 30.6408L9.05414 35.1814L7.15397 36.3596H7.1513L0 32.7704V24.6246L1.96498 23.4056L9.05414 19.011V26.9624L16.3812 30.6408Z" fill="#FF5A00"/>
<path d="M28.2444 15.0863V33.3841L25.3821 35.1569L19.1849 39V20.8921L11.9089 17.2404L9.05238 15.8056L2.90625 12.7215L9.05238 8.91085L12.1334 7L19.1849 10.5404L21.1361 11.5189L28.2444 15.0863Z" fill="#38387B"/>
<path d="M28.245 33.3842L19.1855 39.0001V20.8922L28.245 15.0864V33.3842Z" fill="#25376A"/>
</svg>
